<svg xmlns="http://www.w3.org/2000/svg" viewBox="0 0 506.3 215.84"><defs><style>.cls-1{font-size:50px;fill:#e6e8ef;font-family:Consolas, Consolas;}</style></defs><title>Asset 2</title><g id="Layer_2" data-name="Layer 2"><g id="Layer_1-2" data-name="Layer 1"><text class="cls-1" transform="translate(35.47 44.28) rotate(-60)">0</text><text class="cls-1" transform="translate(99.47 44.28) rotate(-60)">0</text><text class="cls-1" transform="translate(161.47 44.28) rotate(-60)">0</text><text class="cls-1" transform="translate(225.47 44.28) rotate(-60)">1</text><text class="cls-1" transform="translate(289.47 44.28) rotate(-60)">0</text><text class="cls-1" transform="translate(353.47 44.28) rotate(-60)">1</text><text class="cls-1" transform="translate(415.47 44.28) rotate(-60)">1</text><text class="cls-1" transform="translate(479.47 44.28) rotate(-60)">0</text><text class="cls-1" transform="translate(35.47 98.28) rotate(-60)">1</text><text class="cls-1" transform="translate(99.47 98.28) rotate(-60)">0</text><text class="cls-1" transform="translate(161.47 98.28) rotate(-60)">1</text><text class="cls-1" transform="translate(225.47 98.28) rotate(-60)">0</text><text class="cls-1" transform="translate(289.47 98.28) rotate(-60)">0</text><text class="cls-1" transform="translate(353.47 98.28) rotate(-60)">1</text><text class="cls-1" transform="translate(415.47 98.28) rotate(-60)">0</text><text class="cls-1" transform="translate(479.47 98.28) rotate(-60)">1</text><text class="cls-1" transform="translate(35.47 154.28) rotate(-60)">0</text><text class="cls-1" transform="translate(99.47 154.28) rotate(-60)">0</text><text class="cls-1" transform="translate(161.47 154.28) rotate(-60)">0</text><text class="cls-1" transform="translate(225.47 154.28) rotate(-60)">1</text><text class="cls-1" transform="translate(289.47 154.28) rotate(-60)">1</text><text class="cls-1" transform="translate(353.47 154.28) rotate(-60)">0</text><text class="cls-1" transform="translate(415.47 154.28) rotate(-60)">1</text><text class="cls-1" transform="translate(479.47 154.28) rotate(-60)">0</text><text class="cls-1" transform="translate(35.47 208.28) rotate(-60)">0</text><text class="cls-1" transform="translate(99.47 208.28) rotate(-60)">1</text><text class="cls-1" transform="translate(161.47 208.28) rotate(-60)">0</text><text class="cls-1" transform="translate(225.47 208.28) rotate(-60)">0</text><text class="cls-1" transform="translate(289.47 208.28) rotate(-60)">0</text><text class="cls-1" transform="translate(353.47 208.28) rotate(-60)">1</text><text class="cls-1" transform="translate(415.47 208.28) rotate(-60)">0</text><text class="cls-1" transform="translate(479.47 208.28) rotate(-60)">1</text></g></g></svg>