<svg xmlns="http://www.w3.org/2000/svg" viewBox="0 0 1064.04 880.72"><defs><style>.cls-1{fill:none;}.cls-2{font-size:54.96px;}.cls-2,.cls-3{font-family:Consolas, Consolas;}.cls-3{font-size:71.73px;}</style></defs><title>Asset 1</title><g id="Layer_2" data-name="Layer 2"><g id="Layer_1-2" data-name="Layer 1"><rect class="cls-1" x="125.95" y="525.36" width="52.24" height="106.55" transform="translate(-12.36 3.39) rotate(-1.23)"/><text class="cls-2" transform="matrix(1.73, -0.04, 0.04, 1.73, 126.48, 603.75)">0</text><rect class="cls-1" x="211.87" y="466.37" width="51.56" height="105.16" transform="translate(-279.65 277.73) rotate(-40.39)"/><text class="cls-2" transform="matrix(1.3, -1.11, 1.11, 1.3, 233.73, 554.12)">0</text><rect class="cls-1" x="320.78" y="524.2" width="54.6" height="111.35" transform="translate(-230.65 229.89) rotate(-27.86)"/><text class="cls-2" transform="translate(335.94 615.32) rotate(-27.86) scale(1.81)">0</text><rect class="cls-1" x="424.22" y="492.73" width="54.1" height="110.33" transform="translate(-182.78 228.81) rotate(-23.81)"/><text class="cls-2" transform="matrix(1.64, -0.72, 0.72, 1.64, 436.78, 582.07)">0</text><rect class="cls-1" x="517.57" y="474.42" width="53.89" height="109.9" transform="translate(-212.15 594.06) rotate(-49.08)"/><text class="cls-2" transform="translate(546 566.32) rotate(-49.08) scale(1.78)">0</text><rect class="cls-1" x="581.14" y="468.21" width="53.95" height="110.03" transform="translate(-176.48 690.49) rotate(-52.74)"/><text class="cls-2" transform="translate(611.97 560.05) rotate(-52.74) scale(1.79)">0</text><rect class="cls-1" x="696.2" y="441.87" width="52.56" height="107.19" transform="translate(-128.79 288.58) rotate(-20.78)"/><text class="cls-2" transform="translate(706.68 527.88) rotate(-20.78) scale(1.74)">0</text><rect class="cls-1" x="682.85" y="369.14" width="54.89" height="111.95" transform="matrix(0.82, -0.58, 0.58, 0.82, -115.23, 486.3)"/><text class="cls-2" transform="translate(702.7 462.01) rotate(-35.14) scale(1.82)">0</text><rect class="cls-1" x="620.68" y="268.79" width="52.72" height="107.53" transform="translate(-45.82 116.04) rotate(-9.9)"/><text class="cls-2" transform="translate(625.33 351.5) rotate(-9.9) scale(1.74)">0</text><rect class="cls-1" x="513.25" y="287.06" width="51.66" height="105.35" transform="translate(-92.67 256.56) rotate(-24.72)"/><text class="cls-2" transform="translate(525.77 372.59) rotate(-24.72) scale(1.71)">0</text><rect class="cls-1" x="430.78" y="309.9" width="52.27" height="106.6" transform="translate(-86.81 575.46) rotate(-59.81)"/><text class="cls-2" transform="translate(465.01 398.15) rotate(-59.81) scale(1.73)">0</text><rect class="cls-1" x="345.73" y="279.58" width="54.01" height="110.15" transform="translate(-117.22 438.92) rotate(-53.93)"/><text class="cls-2" transform="matrix(1.05, -1.44, 1.44, 1.05, 377.35, 371.43)">0</text><rect class="cls-1" x="280.74" y="330.23" width="52.11" height="106.28" transform="translate(-184.15 374.87) rotate(-50.34)"/><text class="cls-2" transform="translate(309.02 419.06) rotate(-50.34) scale(1.72)">0</text><rect class="cls-1" x="169.46" y="345.46" width="55.2" height="112.58" transform="translate(-240.6 308.53) rotate(-51.85)"/><text class="cls-2" transform="translate(200.41 439.48) rotate(-51.85) scale(1.83)">0</text><rect class="cls-1" x="104.77" y="346.53" width="52.1" height="106.26" transform="translate(-103.2 50.26) rotate(-15.69)"/><text class="cls-2" transform="translate(112.36 430.28) rotate(-15.69) scale(1.72)">0</text><rect class="cls-1" x="149.72" y="334.99" width="53.82" height="109.77" transform="translate(-248.59 340.99) rotate(-59.07)"/><text class="cls-2" transform="matrix(0.92, -1.53, 1.53, 0.92, 184.5, 425.96)">0</text><rect class="cls-1" x="242.73" y="290.97" width="51.66" height="105.37" transform="translate(-166.69 315.69) rotate(-48.32)"/><text class="cls-2" transform="translate(269.52 379.1) rotate(-48.32) scale(1.71)">0</text><rect class="cls-1" x="277.78" y="288.79" width="55.28" height="112.75" transform="translate(-22.31 21.11) rotate(-3.82)"/><text class="cls-2" transform="matrix(1.83, -0.12, 0.12, 1.83, 279.57, 372.93)">0</text><rect class="cls-1" x="376.64" y="285.96" width="53.41" height="108.93" transform="translate(-83.77 543.65) rotate(-62.81)"/><text class="cls-2" transform="translate(413.47 375.65) rotate(-62.81) scale(1.77)">0</text><rect class="cls-1" x="445.78" y="281.55" width="54.9" height="111.96" transform="translate(-105.97 386.58) rotate(-40.34)"/><text class="cls-2" transform="matrix(1.38, -1.18, 1.18, 1.38, 469, 374.97)">0</text><rect class="cls-1" x="537.19" y="243.06" width="54.81" height="111.79" transform="translate(-63.53 182.34) rotate(-17.38)"/><text class="cls-2" transform="translate(546.14 331.73) rotate(-17.38) scale(1.81)">0</text><rect class="cls-1" x="625.87" y="261.52" width="52.97" height="108.03" transform="translate(-56.35 164.33) rotate(-13.77)"/><text class="cls-2" transform="matrix(1.7, -0.42, 0.42, 1.7, 632.56, 346.02)">0</text><rect class="cls-1" x="693.81" y="262.67" width="54.51" height="111.18" transform="translate(-58.66 203.17) rotate(-15.42)"/><text class="cls-2" transform="matrix(1.74, -0.48, 0.48, 1.74, 701.6, 350.21)">0</text><rect class="cls-1" x="747.69" y="267.36" width="54.74" height="111.65" transform="matrix(0.99, -0.13, 0.13, 0.99, -34.66, 100.65)"/><text class="cls-2" transform="translate(751.16 352.17) rotate(-7.27) scale(1.81)">0</text><rect class="cls-1" x="723.74" y="333.94" width="52.63" height="107.34" transform="translate(-94.15 375.61) rotate(-26.51)"/><text class="cls-2" transform="translate(737.55 421.49) rotate(-26.51) scale(1.74)">0</text><rect class="cls-1" x="712.03" y="435.27" width="51.1" height="104.22" transform="translate(-133.85 338.44) rotate(-23.76)"/><text class="cls-2" transform="translate(723.87 519.66) rotate(-23.76) scale(1.69)">0</text><rect class="cls-1" x="720.81" y="495.62" width="54.95" height="112.07" transform="translate(-59.43 91.37) rotate(-6.72)"/><text class="cls-2" transform="translate(724.02 580.53) rotate(-6.72) scale(1.82)">0</text><rect class="cls-1" x="677.83" y="490.08" width="52.16" height="106.39" transform="translate(-108.82 182.58) rotate(-13.73)"/><text class="cls-2" transform="translate(684.4 573.28) rotate(-13.73) scale(1.73)">0</text><rect class="cls-1" x="593.17" y="494.54" width="51.52" height="105.07" transform="translate(-189.31 717.68) rotate(-53.39)"/><text class="cls-2" transform="translate(623.01 582.19) rotate(-53.39) scale(1.7)">0</text><rect class="cls-1" x="507.4" y="530.15" width="51.12" height="104.25" transform="translate(-249.86 683.72) rotate(-54.92)"/><text class="cls-2" transform="translate(537.93 617) rotate(-54.92) scale(1.69)">0</text><rect class="cls-1" x="387.48" y="479.44" width="55.28" height="112.76" transform="translate(-251.69 657.45) rotate(-62.57)"/><text class="cls-2" transform="translate(425.45 572.32) rotate(-62.57) scale(1.83)">0</text><rect class="cls-1" x="330.5" y="545.92" width="51.73" height="105.5" transform="translate(-139.51 109.28) rotate(-14.61)"/><text class="cls-2" transform="translate(337.47 628.72) rotate(-14.61) scale(1.71)">0</text><rect class="cls-1" x="248.11" y="540.18" width="50.99" height="103.99" transform="translate(-2.56 1.19) rotate(-0.25)"/><text class="cls-2" transform="matrix(1.69, -0.01, 0.01, 1.69, 248.21, 616.25)">0</text><rect class="cls-1" x="160.08" y="575.26" width="52.3" height="106.67" transform="translate(-8.44 2.56) rotate(-0.77)"/><text class="cls-2" transform="translate(160.41 653.53) rotate(-0.77) scale(1.73)">0</text><rect class="cls-1" x="127.22" y="607.26" width="53.52" height="109.15" transform="translate(-195.79 79.25) rotate(-17.88)"/><text class="cls-2" transform="matrix(1.69, -0.54, 0.54, 1.69, 136.23, 693.99)">0</text><rect class="cls-1" x="230.24" y="611.89" width="52.53" height="107.14" transform="translate(-128.13 64.89) rotate(-11.56)"/><text class="cls-2" transform="translate(235.72 694.92) rotate(-11.56) scale(1.74)">0</text><rect class="cls-1" x="338.26" y="586.65" width="53.51" height="109.13" transform="translate(-4.27 2.45) rotate(-0.38)"/><text class="cls-2" transform="translate(338.43 666.54) rotate(-0.38) scale(1.77)">0</text><rect class="cls-1" x="421.8" y="646.01" width="55.43" height="113.06" transform="translate(-30.23 20.28) rotate(-2.5)"/><text class="cls-2" transform="translate(422.96 729.78) rotate(-2.5) scale(1.83)">0</text><rect class="cls-1" x="520.46" y="610.39" width="51.47" height="104.98" transform="translate(-300.68 519.55) rotate(-40.91)"/><text class="cls-2" transform="matrix(1.29, -1.12, 1.12, 1.29, 542.59, 698.02)">0</text><rect class="cls-1" x="585.04" y="622.72" width="53.31" height="108.73" transform="translate(-292.67 555.67) rotate(-40.26)"/><text class="cls-2" transform="matrix(1.35, -1.14, 1.14, 1.35, 607.54, 713.43)">0</text><rect class="cls-1" x="655.08" y="589.25" width="53.22" height="108.54" transform="translate(-16.78 18.25) rotate(-1.52)"/><text class="cls-2" transform="matrix(1.76, -0.05, 0.05, 1.76, 655.75, 669.23)">0</text><rect class="cls-1" x="738.98" y="596.62" width="53.88" height="109.89" transform="translate(-175.84 299.06) rotate(-19.87)"/><text class="cls-2" transform="translate(749.19 684.54) rotate(-19.87) scale(1.78)">0</text><rect class="cls-1" x="829.64" y="556.7" width="53.86" height="109.84" transform="translate(-113.92 204.27) rotate(-12.76)"/><text class="cls-2" transform="translate(835.9 642.25) rotate(-12.76) scale(1.78)">0</text><rect class="cls-1" x="825.97" y="469" width="50.94" height="103.9" transform="translate(-146.42 496.1) rotate(-30.03)"/><text class="cls-2" transform="translate(841.37 554.43) rotate(-30.03) scale(1.69)">0</text><rect class="cls-1" x="889.61" y="401.69" width="52.95" height="108" transform="translate(-105.16 518.37) rotate(-29.96)"/><text class="cls-2" transform="translate(905.57 490.47) rotate(-29.96) scale(1.75)">0</text><rect class="cls-1" x="839.48" y="330.35" width="55.21" height="112.6" transform="translate(15.66 806.67) rotate(-50.29)"/><text class="cls-2" transform="matrix(1.17, -1.41, 1.41, 1.17, 869.41, 424.47)">0</text><rect class="cls-1" x="866.64" y="231.42" width="52.29" height="106.64" transform="translate(58.77 712.01) rotate(-44.82)"/><text class="cls-2" transform="translate(891.56 320.6) rotate(-44.82) scale(1.73)">0</text><rect class="cls-1" x="800.58" y="112.56" width="55.38" height="112.94" transform="translate(-12.48 81.01) rotate(-5.56)"/><text class="cls-2" transform="translate(803.23 197.62) rotate(-5.56) scale(1.83)">0</text><rect class="cls-1" x="714.63" y="136.72" width="54.36" height="110.86" transform="translate(163.95 695.42) rotate(-55.58)"/><text class="cls-2" transform="matrix(1.02, -1.48, 1.48, 1.02, 747.52, 229.02)">0</text><rect class="cls-1" x="620.9" y="126.85" width="51.44" height="104.91" transform="matrix(0.51, -0.86, 0.86, 0.51, 164.78, 646.3)"/><text class="cls-2" transform="translate(654.46 213.72) rotate(-59.6) scale(1.7)">0</text><rect class="cls-1" x="547.57" y="142.23" width="55.52" height="113.24" transform="translate(41.34 491.07) rotate(-47.76)"/><text class="cls-2" transform="translate(575.98 236.94) rotate(-47.76) scale(1.84)">0</text><rect class="cls-1" x="487.32" y="125.38" width="51.71" height="105.47" transform="translate(102.69 533.89) rotate(-60.06)"/><text class="cls-2" transform="translate(521.33 212.65) rotate(-60.06) scale(1.71)">0</text><rect class="cls-1" x="405.1" y="150.01" width="54.47" height="111.08" transform="translate(-44.47 162.91) rotate(-20.32)"/><text class="cls-2" transform="translate(415.69 239.01) rotate(-20.32) scale(1.8)">0</text><rect class="cls-1" x="301.01" y="132.8" width="50.71" height="103.43" transform="translate(-47.69 209.82) rotate(-33.35)"/><text class="cls-2" transform="matrix(1.4, -0.92, 0.92, 1.4, 318.29, 218.36)">0</text><rect class="cls-1" x="175.98" y="151.37" width="55.38" height="112.94" transform="translate(-23.61 26.12) rotate(-6.94)"/><text class="cls-2" transform="translate(179.33 237.02) rotate(-6.94) scale(1.83)">0</text><rect class="cls-1" x="117.69" y="243.89" width="53.65" height="109.42" transform="translate(-109.52 85.26) rotate(-24.15)"/><text class="cls-2" transform="matrix(1.62, -0.73, 0.73, 1.62, 130.36, 332.59)">0</text><rect class="cls-1" x="74.58" y="317.67" width="54.45" height="111.05" transform="translate(-204.72 137.24) rotate(-37.15)"/><text class="cls-2" transform="matrix(1.44, -1.09, 1.09, 1.44, 95.56, 410.03)">0</text><rect class="cls-1" x="215.54" y="613.57" width="49.08" height="100.09" transform="translate(-462.5 729.93) rotate(-75.5)"/><text class="cls-3" transform="translate(256.27 693.15) rotate(-75.5) scale(1.24)">1</text><rect class="cls-1" x="356.08" y="737.59" width="39.49" height="80.54" transform="translate(-157.04 97.88) rotate(-12.3)"/><text class="cls-3" transform="matrix(0.98, -0.21, 0.21, 0.98, 360.48, 800.2)">1</text><rect class="cls-1" x="506.46" y="721.83" width="52.69" height="107.46" transform="translate(-267.35 1270.66) rotate(-87.26)"/><text class="cls-3" transform="matrix(0.06, -1.33, 1.33, 0.06, 556.28, 803.06)">1</text><rect class="cls-1" x="612.98" y="554.1" width="45.13" height="92.05" transform="translate(-202.95 847.09) rotate(-59.77)"/><text class="cls-3" transform="translate(642.52 630.3) rotate(-59.77) scale(1.14)">1</text><rect class="cls-1" x="687.39" y="485.43" width="43.35" height="88.41" transform="translate(-161.32 690.03) rotate(-47.2)"/><text class="cls-3" transform="translate(709.29 559.38) rotate(-47.2) scale(1.1)">1</text><rect class="cls-1" x="601.71" y="368.35" width="44.67" height="91.1" transform="translate(-13.34 20.85) rotate(-1.89)"/><text class="cls-3" transform="translate(602.41 435.62) rotate(-1.89) scale(1.13)">1</text><rect class="cls-1" x="430.87" y="268.36" width="100.23" height="49.14" transform="translate(-80.46 248.93) rotate(-26.86)"/><text class="cls-3" transform="translate(512.69 304.42) rotate(-116.86) scale(1.25)">1</text><rect class="cls-1" x="309.95" y="374.79" width="52.2" height="106.47" transform="translate(-3.12 2.47) rotate(-0.42)"/><text class="cls-3" transform="translate(310.13 452.75) rotate(-0.42) scale(1.32)">1</text><rect class="cls-1" x="181.78" y="422.22" width="114.28" height="56.03" transform="translate(-128.1 96.55) rotate(-18.11)"/><text class="cls-3" transform="translate(272.66 468.68) rotate(-108.11) scale(1.42)">1</text><rect class="cls-1" x="115.23" y="327.58" width="60.86" height="124.12" transform="translate(-60.25 28.2) rotate(-9.17)"/><text class="cls-3" transform="translate(120.18 422.73) rotate(-9.17) scale(1.54)">1</text><rect class="cls-1" x="169.7" y="469.67" width="92.12" height="45.17" transform="translate(-29.73 14.13) rotate(-3.51)"/><text class="cls-3" transform="translate(238.33 513.5) rotate(-93.51) scale(1.15)">1</text><rect class="cls-1" x="250.61" y="430.17" width="40.42" height="82.43" transform="translate(-262.12 578.75) rotate(-71.51)"/><text class="cls-3" transform="translate(282.42 496.58) rotate(-71.51) scale(1.02)">1</text><rect class="cls-1" x="334.53" y="416.16" width="39.77" height="81.12" transform="translate(-191.34 266.04) rotate(-32.93)"/><text class="cls-3" transform="translate(347.89 483.23) rotate(-32.93) scale(1.01)">1</text><rect class="cls-1" x="437.7" y="360.51" width="48.77" height="99.47" transform="translate(-86.16 125.19) rotate(-14.13)"/><text class="cls-3" transform="translate(444.03 438.43) rotate(-14.13) scale(1.24)">1</text><rect class="cls-1" x="488.77" y="439.01" width="111.28" height="54.56" transform="translate(-44.42 57.53) rotate(-5.81)"/><text class="cls-3" transform="translate(572.69 490.83) rotate(-95.81) scale(1.38)">1</text><rect class="cls-1" x="602.41" y="321.72" width="44.59" height="90.94" transform="translate(17.34 762.39) rotate(-63.5)"/><text class="cls-3" transform="matrix(0.5, -1.01, 1.01, 0.5, 633.51, 396.49)">1</text><rect class="cls-1" x="753.33" y="421.25" width="49.8" height="101.57" transform="translate(-117.02 307.74) rotate(-20.84)"/><text class="cls-3" transform="translate(763.29 502.77) rotate(-20.84) scale(1.26)">1</text><rect class="cls-1" x="637.9" y="405.98" width="51.55" height="105.14" transform="matrix(0.99, -0.13, 0.13, 0.99, -53.11, 88.47)"/><text class="cls-3" transform="translate(641.21 485.87) rotate(-7.33) scale(1.31)">1</text><rect class="cls-1" x="740.79" y="508.63" width="57.66" height="117.6" transform="translate(-167.84 755.75) rotate(-47.76)"/><text class="cls-3" transform="translate(770.3 606.99) rotate(-47.76) scale(1.46)">1</text><rect class="cls-1" x="673.94" y="429.15" width="56.89" height="116.03" transform="translate(-150.33 427.53) rotate(-30.74)"/><text class="cls-3" transform="matrix(1.24, -0.74, 0.74, 1.24, 691.61, 524.69)">1</text><rect class="cls-1" x="600.98" y="543.16" width="46.82" height="95.48" transform="translate(-230.07 685.39) rotate(-49.73)"/><text class="cls-3" transform="translate(626.05 622.98) rotate(-49.73) scale(1.19)">1</text><rect class="cls-1" x="467.51" y="595.27" width="93.41" height="45.8" transform="translate(-176.72 206.88) rotate(-19.48)"/><text class="cls-3" transform="translate(542.15 632.58) rotate(-109.48) scale(1.16)">1</text><rect class="cls-1" x="354.63" y="472.67" width="41.85" height="85.35" transform="translate(-207.89 258.03) rotate(-30.12)"/><text class="cls-3" transform="matrix(0.92, -0.53, 0.53, 0.92, 367.33, 542.86)">1</text><rect class="cls-1" x="238.08" y="490.46" width="44.3" height="90.35" transform="translate(-42.41 22.77) rotate(-4.63)"/><text class="cls-3" transform="matrix(1.12, -0.09, 0.09, 1.12, 239.83, 558.18)">1</text><rect class="cls-1" x="79.28" y="426.62" width="46.33" height="94.48" transform="translate(-382.09 490.17) rotate(-79.73)"/><text class="cls-3" transform="translate(119.74 500.53) rotate(-79.73) scale(1.17)">1</text><rect class="cls-1" x="160.46" y="784.97" width="50.24" height="102.46" transform="translate(-650.2 648.73) rotate(-64.84)"/><text class="cls-3" transform="matrix(0.54, -1.15, 1.15, 0.54, 196.28, 868.98)">1</text><rect class="cls-1" x="247.5" y="807.84" width="129.8" height="63.64" transform="translate(-28 10.96) rotate(-1.92)"/><text class="cls-3" transform="matrix(-0.05, -1.61, 1.61, -0.05, 343.36, 870.46)">1</text><rect class="cls-1" x="440.33" y="729.11" width="42.56" height="86.8" transform="translate(-74.39 49.62) rotate(-5.7)"/><text class="cls-3" transform="translate(442.42 794.53) rotate(-5.7) scale(1.08)">1</text><rect class="cls-1" x="547.11" y="698.26" width="101.54" height="49.79" transform="translate(-223.17 268.97) rotate(-21.47)"/><text class="cls-3" transform="translate(628.77 737.76) rotate(-111.47) scale(1.26)">1</text><rect class="cls-1" x="669.05" y="720.49" width="53.05" height="108.2" transform="translate(-332.79 936.64) rotate(-57.03)"/><text class="cls-3" transform="matrix(0.73, -1.13, 1.13, 0.73, 702.07, 810.41)">1</text><rect class="cls-1" x="755.53" y="718.52" width="64.14" height="130.81" transform="translate(-266.79 1134.8) rotate(-63.27)"/><text class="cls-3" transform="translate(800.1 826.12) rotate(-63.27) scale(1.63)">1</text><rect class="cls-1" x="843.69" y="608.56" width="45.8" height="93.4" transform="translate(125.61 1449.8) rotate(-84.09)"/><text class="cls-3" transform="translate(885.65 680.25) rotate(-84.09) scale(1.16)">1</text><rect class="cls-1" x="787.35" y="545.85" width="115.46" height="56.61" transform="translate(-176.59 577.48) rotate(-34.38)"/><text class="cls-3" transform="translate(883.02 582.49) rotate(-124.38) scale(1.44)">1</text><rect class="cls-1" x="994.96" y="419.8" width="56.8" height="115.85" transform="translate(-81.1 241.82) rotate(-12.97)"/><text class="cls-3" transform="translate(1001.67 510.12) rotate(-12.97) scale(1.44)">1</text><rect class="cls-1" x="848.67" y="284.92" width="45.92" height="93.66" transform="translate(-50.49 471.34) rotate(-29.44)"/><text class="cls-3" transform="translate(862.25 361.84) rotate(-29.44) scale(1.16)">1</text><rect class="cls-1" x="769.42" y="1.93" width="46.44" height="94.71" transform="translate(215.8 595.14) rotate(-46.98)"/><text class="cls-3" transform="translate(792.75 81.15) rotate(-46.98) scale(1.18)">1</text><rect class="cls-1" x="623.46" y="180.21" width="56.54" height="115.31" transform="translate(145.62 712.4) rotate(-63.21)"/><text class="cls-3" transform="translate(662.71 275.08) rotate(-63.21) scale(1.43)">1</text><rect class="cls-1" x="455.59" y="129.71" width="81.13" height="39.78" transform="translate(-3.83 13.35) rotate(-1.54)"/><text class="cls-3" transform="translate(515.38 168.99) rotate(-91.54) scale(1.01)">1</text><rect class="cls-1" x="369.36" y="190.15" width="44.18" height="90.11" transform="translate(-65.07 223.02) rotate(-29.47)"/><text class="cls-3" transform="translate(382.44 264.16) rotate(-29.47) scale(1.12)">1</text><rect class="cls-1" x="200.29" y="188.06" width="54.43" height="111.02" transform="translate(-34.93 449.02) rotate(-85.01)"/><text class="cls-3" transform="matrix(0.12, -1.37, 1.37, 0.12, 250.62, 272.91)">1</text><rect class="cls-1" x="24.56" y="205.87" width="40.82" height="83.25" transform="translate(-206.47 239.87) rotate(-77.96)"/><text class="cls-3" transform="translate(59.48 271.46) rotate(-77.96) scale(1.04)">1</text><rect class="cls-1" x="22.18" y="377.8" width="107.04" height="52.49" transform="translate(-78.92 23.16) rotate(-11.48)"/><text class="cls-3" transform="translate(105.11 424.85) rotate(-101.48) scale(1.33)">1</text></g></g></svg>